<mxfile host="app.diagrams.net" agent="Mozilla/5.0 (Windows NT 10.0; Win64; x64) AppleWebKit/537.36 (KHTML, like Gecko) Chrome/140.0.0.0 Safari/537.36 Edg/140.0.0.0" version="28.2.3">
  <diagram name="Página-1" id="k9Yk6ZPLxcv3KK9TUnO3">
    <mxGraphModel dx="1418" dy="786" grid="1" gridSize="10" guides="1" tooltips="1" connect="1" arrows="1" fold="1" page="1" pageScale="1" pageWidth="827" pageHeight="1169" math="0" shadow="0">
      <root>
        <mxCell id="0" />
        <mxCell id="1" parent="0" />
        <mxCell id="j1OZ1AMPAy66AwUhkmDT-6" value="" style="edgeStyle=orthogonalEdgeStyle;rounded=0;orthogonalLoop=1;jettySize=auto;html=1;" edge="1" parent="1" source="j1OZ1AMPAy66AwUhkmDT-1" target="j1OZ1AMPAy66AwUhkmDT-3">
          <mxGeometry relative="1" as="geometry" />
        </mxCell>
        <mxCell id="j1OZ1AMPAy66AwUhkmDT-1" value="Inicío" style="ellipse;whiteSpace=wrap;html=1;fillColor=#f5f5f5;strokeColor=#666666;gradientColor=#b3b3b3;" vertex="1" parent="1">
          <mxGeometry x="354" y="90" width="120" height="80" as="geometry" />
        </mxCell>
        <mxCell id="j1OZ1AMPAy66AwUhkmDT-2" value="Fim" style="ellipse;whiteSpace=wrap;html=1;fillColor=#f8cecc;gradientColor=#ea6b66;strokeColor=#b85450;" vertex="1" parent="1">
          <mxGeometry x="354" y="610" width="120" height="80" as="geometry" />
        </mxCell>
        <mxCell id="j1OZ1AMPAy66AwUhkmDT-7" value="" style="edgeStyle=orthogonalEdgeStyle;rounded=0;orthogonalLoop=1;jettySize=auto;html=1;" edge="1" parent="1" source="j1OZ1AMPAy66AwUhkmDT-3" target="j1OZ1AMPAy66AwUhkmDT-4">
          <mxGeometry relative="1" as="geometry" />
        </mxCell>
        <mxCell id="j1OZ1AMPAy66AwUhkmDT-3" value="LER Kmi, Kmf,litros G" style="shape=parallelogram;perimeter=parallelogramPerimeter;whiteSpace=wrap;html=1;fixedSize=1;fillColor=#dae8fc;strokeColor=#6c8ebf;gradientColor=#7ea6e0;" vertex="1" parent="1">
          <mxGeometry x="80" y="210" width="206" height="60" as="geometry" />
        </mxCell>
        <mxCell id="j1OZ1AMPAy66AwUhkmDT-8" value="" style="edgeStyle=orthogonalEdgeStyle;rounded=0;orthogonalLoop=1;jettySize=auto;html=1;" edge="1" parent="1" source="j1OZ1AMPAy66AwUhkmDT-4" target="j1OZ1AMPAy66AwUhkmDT-5">
          <mxGeometry relative="1" as="geometry" />
        </mxCell>
        <mxCell id="j1OZ1AMPAy66AwUhkmDT-4" value="Resultado=(100*litros G)/(Kmf-Kmi)" style="shape=parallelogram;perimeter=parallelogramPerimeter;whiteSpace=wrap;html=1;fixedSize=1;size=-4;fillColor=#d5e8d4;strokeColor=#82b366;gradientColor=#97d077;" vertex="1" parent="1">
          <mxGeometry x="600" y="370" width="120" height="60" as="geometry" />
        </mxCell>
        <mxCell id="j1OZ1AMPAy66AwUhkmDT-9" value="" style="edgeStyle=orthogonalEdgeStyle;rounded=0;orthogonalLoop=1;jettySize=auto;html=1;" edge="1" parent="1" source="j1OZ1AMPAy66AwUhkmDT-5" target="j1OZ1AMPAy66AwUhkmDT-2">
          <mxGeometry relative="1" as="geometry" />
        </mxCell>
        <mxCell id="j1OZ1AMPAy66AwUhkmDT-5" value="Escrever resultado" style="shape=parallelogram;perimeter=parallelogramPerimeter;whiteSpace=wrap;html=1;fixedSize=1;fillColor=#fff2cc;strokeColor=#d6b656;gradientColor=#ffd966;" vertex="1" parent="1">
          <mxGeometry x="170" y="500" width="120" height="60" as="geometry" />
        </mxCell>
      </root>
    </mxGraphModel>
  </diagram>
</mxfile>
